<svg width="55" height="55" viewBox="0 0 55 55" fill="none" xmlns="http://www.w3.org/2000/svg">
<path d="M44.6875 55H10.3125C4.61667 55 0 50.3833 0 44.6875V10.3125C0 4.61667 4.61667 0 10.3125 0H44.6875C50.3833 0 55 4.61667 55 10.3125V44.6875C55 50.3833 50.3833 55 44.6875 55Z" fill="white" fill-opacity="0.35"/>
<path d="M40.9013 19.4493C40.857 19.3084 40.777 19.1814 40.6692 19.0805C40.5613 18.9797 40.4293 18.9084 40.2858 18.8735C40.1425 18.838 39.9924 18.8403 39.8503 18.8801C39.7081 18.9199 39.5787 18.9959 39.4746 19.1006L35.8445 22.7307L33.0654 21.9347L32.2694 19.1555L35.8994 15.5254C36.0042 15.4214 36.0802 15.292 36.12 15.1498C36.1598 15.0077 36.1621 14.8576 36.1265 14.7143C36.092 14.5707 36.0208 14.4385 35.9198 14.3306C35.8189 14.2227 35.6917 14.1428 35.5507 14.0988C34.8187 13.8671 34.0364 13.75 33.2286 13.75C28.8063 13.75 25.2072 17.3473 25.2072 21.7714C25.2072 22.708 25.3637 23.6123 25.6747 24.4666L14.7571 35.3837C14.1075 36.0336 13.75 36.8948 13.75 37.8125C13.75 38.7302 14.1075 39.5913 14.7587 40.2413C15.4071 40.8925 16.2698 41.25 17.1875 41.25C18.1052 41.25 18.9663 40.8925 19.6163 40.2413L30.5334 29.3237C31.3877 29.6329 32.292 29.7911 33.2286 29.7911C37.6509 29.7911 41.25 26.1938 41.25 21.7697C41.25 20.9636 41.1329 20.1815 40.9013 19.4493Z" fill="white"/>
</svg>
