<svg width="55" height="55" viewBox="0 0 55 55" fill="none" xmlns="http://www.w3.org/2000/svg">
<path d="M44.6875 55H10.3125C7.57746 55 4.95443 53.9135 3.02046 51.9795C1.08649 50.0456 0 47.4225 0 44.6875L0 10.3125C0 7.57746 1.08649 4.95443 3.02046 3.02046C4.95443 1.08649 7.57746 0 10.3125 0L44.6875 0C47.4225 0 50.0456 1.08649 51.9795 3.02046C53.9135 4.95443 55 7.57746 55 10.3125V44.6875C55 47.4225 53.9135 50.0456 51.9795 51.9795C50.0456 53.9135 47.4225 55 44.6875 55Z" fill="white" fill-opacity="0.35"/>
<path d="M33.8026 26.3553C29.6965 26.3553 26.3553 29.6965 26.3553 33.8026C26.3553 37.9087 29.6965 41.25 33.8026 41.25C37.9087 41.25 41.25 37.9104 41.25 33.8043C41.25 29.6983 37.9087 26.3553 33.8026 26.3553ZM37.0304 32.3606L33.3059 36.6575C33.2286 36.7466 33.1338 36.8188 33.0273 36.8697C32.9208 36.9205 32.8051 36.9489 32.6872 36.9531H32.6562C32.4282 36.9533 32.2094 36.8631 32.0478 36.7022L30.042 34.6964C29.8855 34.5343 29.7988 34.3172 29.8008 34.0919C29.8028 33.8666 29.8931 33.651 30.0525 33.4917C30.2118 33.3324 30.4274 33.242 30.6527 33.24C30.878 33.2381 31.0951 33.3247 31.2572 33.4812L32.6098 34.8339L35.7293 31.2348C35.8786 31.0623 36.0904 30.9561 36.3179 30.9397C36.5455 30.9232 36.7702 30.9979 36.9428 31.1472C37.1153 31.2964 37.2215 31.5082 37.2379 31.7357C37.2544 31.9633 37.1797 32.1881 37.0304 32.3606Z" fill="white"/>
<path d="M33.8026 26.3553C29.6965 26.3553 26.3553 29.6965 26.3553 33.8026C26.3553 37.9087 29.6965 41.25 33.8026 41.25C37.9087 41.25 41.25 37.9104 41.25 33.8043C41.25 29.6983 37.9087 26.3553 33.8026 26.3553ZM37.0304 32.3606L33.3059 36.6575C33.2286 36.7466 33.1338 36.8188 33.0273 36.8697C32.9208 36.9205 32.8051 36.9489 32.6872 36.9531H32.6562C32.4282 36.9533 32.2094 36.8631 32.0478 36.7022L30.042 34.6964C29.8855 34.5343 29.7988 34.3172 29.8008 34.0919C29.8028 33.8666 29.8931 33.651 30.0525 33.4917C30.2118 33.3324 30.4274 33.242 30.6527 33.24C30.878 33.2381 31.0951 33.3247 31.2572 33.4812L32.6098 34.8339L35.7293 31.2348C35.8786 31.0623 36.0904 30.9561 36.3179 30.9397C36.5455 30.9232 36.7702 30.9979 36.9428 31.1472C37.1153 31.2964 37.2215 31.5082 37.2379 31.7357C37.2544 31.9633 37.1797 32.1881 37.0304 32.3606Z" fill="white" fill-opacity="0.75"/>
<path d="M29.15 15.5736L18.7464 20.8209L14.6094 18.8152L24.8308 13.8428C24.9466 13.7859 25.0739 13.7563 25.2029 13.7563C25.3319 13.7563 25.4592 13.7859 25.575 13.8428L29.15 15.5736ZM35.8067 18.8152L25.2192 23.9834L21.2558 22.0584L20.6817 21.7714L31.0973 16.5241L31.6714 16.8111L35.8067 18.8152ZM24.3598 31.3964C23.9655 32.9694 23.9655 34.6153 24.3598 36.1883V36.3481L14.2192 31.1352C14.0788 31.0615 13.9611 30.9511 13.8784 30.8159C13.7958 30.6806 13.7514 30.5254 13.75 30.3669V20.307L18.0469 22.3919V26.058C18.0469 26.5272 18.437 26.9173 18.9062 26.9173C19.3755 26.9173 19.7656 26.5272 19.7656 26.058V23.2392L20.338 23.5142L24.3719 25.4736L24.3598 31.3964ZM36.6781 24.4991C35.7475 24.2079 34.7777 24.0612 33.8027 24.0642C32.3113 24.063 30.8398 24.4055 29.5023 25.0652C28.1649 25.7248 26.9974 26.6839 26.0906 27.8678V25.4616L36.6661 20.3173C36.6781 21.2798 36.6781 23.1584 36.6781 24.4991Z" fill="white" fill-opacity="0.75"/>
</svg>
