<svg width="55" height="55" viewBox="0 0 55 55" fill="none" xmlns="http://www.w3.org/2000/svg">
<path d="M44.6875 55H10.3125C7.57746 55 4.95443 53.9135 3.02046 51.9795C1.08649 50.0456 0 47.4225 0 44.6875L0 10.3125C0 7.57746 1.08649 4.95443 3.02046 3.02046C4.95443 1.08649 7.57746 0 10.3125 0L44.6875 0C47.4225 0 50.0456 1.08649 51.9795 3.02046C53.9135 4.95443 55 7.57746 55 10.3125V44.6875C55 47.4225 53.9135 50.0456 51.9795 51.9795C50.0456 53.9135 47.4225 55 44.6875 55Z" fill="white" fill-opacity="0.35"/>
<path fill-rule="evenodd" clip-rule="evenodd" d="M19.1933 16.3281H22.3438V14.8964C22.3438 14.5924 22.4645 14.3008 22.6795 14.0858C22.8945 13.8708 23.1861 13.75 23.4902 13.75C23.7942 13.75 24.0858 13.8708 24.3008 14.0858C24.5158 14.3008 24.6366 14.5924 24.6366 14.8964V16.3281H27.7853V14.8964C27.7853 14.5924 27.9061 14.3008 28.1211 14.0858C28.3361 13.8708 28.6277 13.75 28.9317 13.75C29.2358 13.75 29.5274 13.8708 29.7424 14.0858C29.9574 14.3008 30.0781 14.5924 30.0781 14.8964L30.0781 16.3281C30.9138 16.3281 31.7153 16.66 32.3064 17.2508C32.8976 17.8416 33.2299 18.6429 33.2303 19.4786V27.9813L26.4808 34.7188C26.0219 35.188 25.7245 35.762 25.6094 36.4031L25.3567 37.8125H16.9005C15.1594 37.8125 13.75 36.4031 13.75 34.6603V19.4786C13.75 17.7375 15.1594 16.3281 16.9005 16.3281L16.9005 14.8964C16.9005 14.7459 16.9301 14.5968 16.9877 14.4577C17.0454 14.3186 17.1298 14.1922 17.2363 14.0858C17.3427 13.9793 17.4691 13.8949 17.6082 13.8373C17.7473 13.7797 17.8963 13.75 18.0469 13.75C18.1974 13.75 18.3465 13.7797 18.4856 13.8373C18.6247 13.8949 18.7511 13.9793 18.8575 14.0858C18.964 14.1922 19.0484 14.3186 19.106 14.4577C19.1636 14.5968 19.1933 14.7459 19.1933 14.8964V16.3281ZM24.0625 22.9178C24.0625 22.287 23.5469 21.7714 22.9161 21.7714L18.3339 21.7697C17.7031 21.7697 17.1875 22.2853 17.1875 22.9161C17.1875 23.5469 17.7031 24.0625 18.3322 24.0625H22.9161C23.5469 24.0625 24.0625 23.5469 24.0625 22.9178ZM18.3322 28.6464H26.3536C26.9844 28.6464 27.5 28.1308 27.5 27.5C27.5 26.8692 26.9844 26.3536 26.3553 26.3536H18.3339C17.7031 26.3536 17.1875 26.8692 17.1875 27.5C17.1875 28.1308 17.7031 28.6464 18.3322 28.6464Z" fill="white" fill-opacity="0.75"/>
<path d="M28.105 41.25C27.9797 41.2495 27.8561 41.2218 27.7427 41.1687C27.6292 41.1156 27.5287 41.0385 27.4481 40.9426C27.3674 40.8468 27.3086 40.7345 27.2757 40.6137C27.2429 40.4928 27.2367 40.3663 27.2576 40.2428L27.8661 36.7984C27.8968 36.6246 27.9802 36.4644 28.105 36.3395L36.6128 27.8317C37.6578 26.785 38.6839 27.0669 39.2459 27.6289L40.6639 29.0469C41.0394 29.4232 41.2503 29.9332 41.2503 30.4648C41.2503 30.9965 41.0394 31.5064 40.6639 31.8828L32.1561 40.3906C32.0317 40.516 31.8713 40.5996 31.6972 40.6295L28.2545 41.2379C28.205 41.2454 28.1551 41.2494 28.105 41.25Z" fill="white"/>
</svg>
